<svg width="120" height="120" viewBox="0 0 120 120" fill="none" xmlns="http://www.w3.org/2000/svg">
    <path fill-rule="evenodd" clip-rule="evenodd" d="M96.375 34.875L70.125 8.625C69.375 7.875 68.625 7.5 67.5 7.5H30C25.875 7.5 22.5 10.875 22.5 15V105C22.5 109.125 25.875 112.5 30 112.5H90C94.125 112.5 97.5 109.125 97.5 105V37.5C97.5 36.375 97.125 35.625 96.375 34.875ZM67.5 16.5L88.5 37.5H67.5V16.5ZM30 105V15H60V37.5C60 41.625 63.375 45 67.5 45H90V105H30ZM37.5 82.5V90H82.5V82.5H37.5ZM37.5 67.5V60H82.5V67.5H37.5Z" fill="#868686"/>
    </svg>
    