<svg width="70" height="70" viewBox="0 0 70 70" fill="none" xmlns="http://www.w3.org/2000/svg">
<g clip-path="url(#clip0_8_1451)">
<rect width="66" height="66" fill="#3F3F3F"/>
<rect x="51" y="58" width="15" height="8" fill="#EB5757"/>
<rect x="64.1829" y="62.7286" width="8.2267" height="2.05667" transform="rotate(45 64.1829 62.7286)" fill="#EB5757"/>
<path d="M29.5312 35.5859C29.3203 37.3906 28.6523 38.7852 27.5273 39.7695C26.4102 40.7461 24.9219 41.2344 23.0625 41.2344C21.0469 41.2344 19.4297 40.5117 18.2109 39.0664C17 37.6211 16.3945 35.6875 16.3945 33.2656V31.625C16.3945 30.0391 16.6758 28.6445 17.2383 27.4414C17.8086 26.2383 18.6133 25.3164 19.6523 24.6758C20.6914 24.0273 21.8945 23.7031 23.2617 23.7031C25.0742 23.7031 26.5273 24.2109 27.6211 25.2266C28.7148 26.2344 29.3516 27.6328 29.5312 29.4219H27.2695C27.0742 28.0625 26.6484 27.0781 25.9922 26.4688C25.3438 25.8594 24.4336 25.5547 23.2617 25.5547C21.8242 25.5547 20.6953 26.0859 19.875 27.1484C19.0625 28.2109 18.6562 29.7227 18.6562 31.6836V33.3359C18.6562 35.1875 19.043 36.6602 19.8164 37.7539C20.5898 38.8477 21.6719 39.3945 23.0625 39.3945C24.3125 39.3945 25.2695 39.1133 25.9336 38.5508C26.6055 37.9805 27.0508 36.9922 27.2695 35.5859H29.5312ZM45.7266 41H43.4648L34.875 27.8516V41H32.6133V23.9375H34.875L43.4883 37.1445V23.9375H45.7266V41Z" fill="#EB5757"/>
</g>
<defs>
<clipPath id="clip0_8_1451">
<rect width="70" height="70" fill="white"/>
</clipPath>
</defs>
</svg>
