<svg width="250" height="242" viewBox="0 0 250 242" fill="none" xmlns="http://www.w3.org/2000/svg">
    <g clip-path="url(#clip0_403_76)">
    <path d="M105.238 39.2045L79.5336 28.1878L69.7746 11.5285L69.4672 11.0678C68.748 10.1701 67.8357 9.44533 66.7984 8.94703C65.7607 8.44873 64.6246 8.18964 63.4734 8.18894H32.7357C31.467 8.18497 30.217 8.49484 29.0974 9.09095C27.9777 9.6871 27.0233 10.5509 26.3192 11.6052L13.2941 31.2203H3.84221C2.8232 31.2203 1.84591 31.6247 1.12536 32.3446C0.404803 33.0644 0 34.0408 0 35.0588V69.6058C0 70.6237 0.404803 71.6002 1.12536 72.32C1.84591 73.0398 2.8232 73.4443 3.84221 73.4443H12.0645C12.9493 76.697 14.8809 79.5684 17.5612 81.6157C20.2415 83.6629 23.5216 84.7721 26.8955 84.7721C30.2693 84.7721 33.5495 83.6629 36.2298 81.6157C38.9101 79.5684 40.8416 76.697 41.7262 73.4443H65.8553C66.7402 76.697 68.6717 79.5684 71.352 81.6157C74.0324 83.6629 77.3127 84.7721 80.6865 84.7721C84.0602 84.7721 87.3406 83.6629 90.0209 81.6157C92.7012 79.5684 94.6328 76.697 95.5176 73.4443H103.74C104.759 73.4443 105.736 73.0398 106.457 72.32C107.177 71.6002 107.582 70.6237 107.582 69.6058V42.7359C107.582 41.9825 107.359 41.2459 106.942 40.6178C106.525 39.9899 105.933 39.4983 105.238 39.2045Z" fill="#D643D9"/>
    <path d="M50.8324 72.4887C55.7877 72.4809 60.6561 71.2772 64.9652 68.9941C69.2742 66.711 72.8766 63.4264 75.4225 59.4601L69.284 56.1109C67.368 59.0789 64.6623 61.5344 61.4295 63.2393C58.1963 64.9439 54.5459 65.8397 50.8324 65.8397C47.1188 65.8397 43.468 64.9439 40.2352 63.2393C37.0021 61.5344 34.2964 59.0789 32.3807 56.1109L26.2421 59.4601C28.7879 63.4264 32.3904 66.711 36.6993 68.9941C41.0082 71.2772 45.877 72.4809 50.8324 72.4887Z" fill="black"/>
    <path d="M82.1705 26.8646H91.816V33.8835H82.1705V40.9024C82.1705 42.7637 81.3889 44.5493 79.9976 45.8657C78.6062 47.1817 76.7189 47.9211 74.7512 47.9211H62.5832C60.8103 47.9441 59.0873 47.3659 57.7262 46.2907C56.3652 45.2155 55.4562 43.7149 55.1639 42.0607L53.1234 30.3741H44.4426L42.5135 42.0607C42.2213 43.7149 41.3123 45.2155 39.9512 46.2907C38.5902 47.3659 36.8672 47.9441 35.0942 47.9211H22.815C20.8473 47.9211 18.9601 47.1817 17.5687 45.8657C16.1773 44.5493 15.3956 42.7637 15.3956 40.9024V33.8835H5.75033V26.8646H15.3956C15.3956 25.9339 15.7864 25.0413 16.4821 24.3831C17.1779 23.725 18.1214 23.3552 19.1053 23.3552H78.4611C79.4447 23.3552 80.3885 23.725 81.084 24.3831C81.7799 25.0413 82.1705 25.9339 82.1705 26.8646Z" fill="black"/>
    <path d="M222.503 85.9836H158.644C151.818 85.9398 145.247 83.346 140.197 78.7C135.148 74.0544 131.974 67.6851 131.288 60.8162C130.601 53.9478 132.449 47.065 136.478 41.4912C140.506 35.9176 146.43 32.0464 153.11 30.622C154.948 21.954 159.67 14.1856 166.488 8.61278C173.305 3.04002 181.807 0 190.574 0C199.34 0 207.842 3.04002 214.66 8.61278C221.478 14.1856 226.199 21.954 228.038 30.622C234.718 32.0464 240.641 35.9176 244.67 41.4912C248.698 47.065 250.546 53.9478 249.859 60.8162C249.173 67.6851 245.999 74.0544 240.95 78.7C235.9 83.346 229.33 85.9398 222.503 85.9836Z" fill="#00ACE2"/>
    <path d="M192.623 73.7002C197.578 73.6925 202.447 72.4887 206.756 70.2056C211.065 67.9226 214.667 64.638 217.213 60.6717L211.075 57.3224C209.159 60.2905 206.453 62.7459 203.22 64.4509C199.987 66.1554 196.336 67.0513 192.623 67.0513C188.909 67.0513 185.259 66.1554 182.026 64.4509C178.793 62.7459 176.087 60.2905 174.171 57.3224L168.033 60.6717C170.579 64.638 174.181 67.9226 178.49 70.2056C182.799 72.4887 187.668 73.6925 192.623 73.7002Z" fill="black"/>
    <path d="M223.961 28.0762H233.607V35.0951H223.961V42.114C223.961 43.9753 223.18 45.7609 221.788 47.0768C220.397 48.3932 218.509 49.1327 216.542 49.1327H204.374C202.601 49.1556 200.878 48.5775 199.517 47.5023C198.156 46.4271 197.247 44.9264 196.955 43.2719L194.914 31.5856H186.233L184.305 43.2719C184.012 44.9264 183.103 46.4271 181.742 47.5023C180.381 48.5775 178.658 49.1556 176.885 49.1327H164.606C162.638 49.1327 160.751 48.3932 159.359 47.0768C157.968 45.7609 157.186 43.9753 157.186 42.114V35.0951H147.541V28.0762H157.186C157.186 27.1454 157.577 26.2528 158.273 25.5946C158.968 24.9365 159.912 24.5667 160.896 24.5667H220.252C221.235 24.5667 222.179 24.9365 222.875 25.5946C223.57 26.2528 223.961 27.1454 223.961 28.0762Z" fill="black"/>
    <path d="M26.0878 241.187C25.1173 240.77 24.3109 240.036 23.7956 239.102C23.2804 238.166 23.0858 237.083 23.2424 236.024L31.8734 178.841H8.96819C8.24201 178.861 7.52106 178.711 6.86098 178.402C6.20086 178.093 5.61926 177.635 5.16102 177.061C4.70274 176.488 4.38012 175.815 4.21799 175.094C4.05585 174.374 4.05856 173.625 4.2259 172.905L18.4527 110.173C18.7031 109.094 19.3113 108.135 20.175 107.458C21.0388 106.781 22.1053 106.428 23.195 106.458H70.6176C71.3262 106.455 72.0262 106.614 72.6664 106.923C73.3066 107.232 73.8705 107.683 74.3168 108.243C74.7693 108.809 75.0897 109.473 75.2541 110.183C75.4184 110.893 75.4221 111.633 75.2652 112.345L67.0611 149.887H89.5869C90.4758 149.886 91.3471 150.138 92.1016 150.616C92.8565 151.094 93.4639 151.778 93.8549 152.59C94.1947 153.369 94.3254 154.227 94.234 155.074C94.1422 155.922 93.8316 156.73 93.3332 157.416L31.6837 239.45C31.267 240.078 30.7107 240.598 30.0598 240.967C29.4089 241.336 28.6818 241.544 27.9373 241.573C27.3027 241.561 26.6758 241.43 26.0878 241.187Z" fill="#61FF00"/>
    <path d="M53.2787 180.156C58.234 180.148 63.1029 178.945 67.4115 176.662C71.7205 174.378 75.3229 171.094 77.8688 167.128L71.7303 163.778C69.8147 166.746 67.109 169.202 63.8758 170.907C60.6426 172.611 56.9922 173.507 53.2787 173.507C49.5652 173.507 45.9147 172.611 42.6816 170.907C39.4485 169.202 36.7428 166.746 34.8271 163.778L28.6885 167.128C31.2343 171.094 34.8368 174.378 39.1457 176.662C43.4545 178.945 48.3234 180.148 53.2787 180.156Z" fill="black"/>
    <path d="M84.6172 134.532H94.2623V141.551H84.6172V148.57C84.6172 150.431 83.8352 152.217 82.4438 153.533C81.0525 154.849 79.1652 155.589 77.1975 155.589H65.0295C63.2566 155.612 61.5336 155.033 60.1725 153.958C58.8115 152.883 57.9025 151.382 57.6102 149.728L55.5701 138.041H46.8889L44.9602 149.728C44.6676 151.382 43.7586 152.883 42.3975 153.958C41.0365 155.033 39.3136 155.612 37.5407 155.589H25.2614C23.2937 155.589 21.4065 154.849 20.0151 153.533C18.6237 152.217 17.842 150.431 17.842 148.57V141.551H8.19672V134.532H17.842C17.842 133.601 18.2328 132.709 18.9286 132.05C19.6243 131.392 20.5678 131.023 21.5517 131.023H80.9074C81.891 131.023 82.8348 131.392 83.5303 132.05C84.2262 132.709 84.6172 133.601 84.6172 134.532Z" fill="black"/>
    <path fill-rule="evenodd" clip-rule="evenodd" d="M201.413 192.44H185.214H139.344L170.379 111.451L179.252 134.608L194.748 94.1725L208.808 130.866L216.248 111.451L247.283 192.44H201.413Z" fill="#D3850E"/>
    <path d="M196.721 188.345C201.677 188.337 206.545 187.134 210.854 184.85C215.163 182.567 218.766 179.283 221.311 175.317L215.173 171.967C213.257 174.935 210.552 177.391 207.318 179.096C204.085 180.8 200.435 181.696 196.721 181.696C193.008 181.696 189.357 180.8 186.124 179.096C182.891 177.391 180.185 174.935 178.27 171.967L172.131 175.317C174.677 179.283 178.28 182.567 182.589 184.85C186.897 187.134 191.766 188.337 196.721 188.345Z" fill="black"/>
    <path d="M228.06 142.721H237.705V149.74H228.06V156.759C228.06 158.62 227.278 160.406 225.886 161.722C224.495 163.038 222.608 163.778 220.64 163.778H208.472C206.699 163.8 204.976 163.222 203.615 162.147C202.254 161.072 201.345 159.571 201.053 157.917L199.013 146.23H190.332L188.403 157.917C188.11 159.571 187.201 161.072 185.84 162.147C184.479 163.222 182.756 163.8 180.983 163.778H168.704C166.736 163.778 164.849 163.038 163.458 161.722C162.066 160.406 161.284 158.62 161.284 156.759V149.74H151.639V142.721H161.284C161.284 141.79 161.675 140.898 162.371 140.239C163.067 139.581 164.011 139.212 164.994 139.212H224.35C225.334 139.212 226.277 139.581 226.973 140.239C227.669 140.898 228.06 141.79 228.06 142.721Z" fill="black"/>
    </g>
    <defs>
    <clipPath id="clip0_403_76">
    <rect width="250" height="241.573" fill="white"/>
    </clipPath>
    </defs>
    </svg>
    